<?xml version="1.0" encoding="utf-8"?>
<!-- Generator: Adobe Illustrator 25.0.1, SVG Export Plug-In . SVG Version: 6.00 Build 0)  -->
<svg version="1.1" id="图层_1" xmlns="http://www.w3.org/2000/svg" xmlns:xlink="http://www.w3.org/1999/xlink" x="0px" y="0px"
	 viewBox="0 0 64 64" style="enable-background:new 0 0 64 64;" xml:space="preserve">
<style type="text/css">
	.st0{fill:#FFFFFF;}
</style>
<path class="st0" d="M32,2.9C15.9,2.9,2.9,15.9,2.9,32s13,29.1,29.1,29.1s29.1-13,29.1-29.1l0,0C61.1,15.9,48.1,2.9,32,2.9
	C32,2.9,32,2.9,32,2.9z M47.5,24.7L30.6,46.2C29.3,48,26.8,48.3,25,47c-0.3-0.2-0.6-0.5-0.8-0.8l-8.1-10.8c-1-1.3-0.7-3.1,0.6-4.1
	c1.3-1,3.1-0.7,4.1,0.6l6.6,9.3l15.4-20.1c1-1.3,2.8-1.5,4.1-0.5S48.4,23.4,47.5,24.7L47.5,24.7z"/>
</svg>
