<?xml version="1.0" encoding="utf-8"?>
<!-- Generator: Adobe Illustrator 25.0.1, SVG Export Plug-In . SVG Version: 6.00 Build 0)  -->
<svg version="1.1" id="图层_1" xmlns="http://www.w3.org/2000/svg" xmlns:xlink="http://www.w3.org/1999/xlink" x="0px" y="0px"
	 viewBox="0 0 64 64" style="enable-background:new 0 0 64 64;" xml:space="preserve">
<style type="text/css">
	.st0{fill:#FFFFFF;}
</style>
<path class="st0" d="M38.2,34.5c0-0.2,0-0.3,0-0.5V9.5c0-4.2-3.4-7.7-7.7-7.7s-7.7,3.4-7.7,7.7V34c0,0.2,0,0.3,0,0.5
	c-4.6,2.6-7.7,7.6-7.7,13.3c0,8.5,6.9,15.3,15.3,15.3s15.3-6.9,15.3-15.3C45.9,42.1,42.8,37.2,38.2,34.5L38.2,34.5z M30.6,55.5
	c-4.2,0-7.7-3.4-7.7-7.7c0-3,1.8-5.7,4.4-6.9c0.6-0.3,1.1-0.5,1.7-0.6V11.1c0-0.8,0.7-1.5,1.5-1.5s1.5,0.7,1.5,1.5v1.5h1.5
	c0.8,0,1.5,0.7,1.5,1.5c0,0.8-0.7,1.5-1.5,1.5h-1.5v3.1h1.5c0.8,0,1.5,0.7,1.5,1.5s-0.7,1.5-1.5,1.5h-1.5v18.5
	c0.6,0.1,1.2,0.3,1.7,0.6c2.6,1.2,4.4,3.8,4.4,6.9C38.2,52.1,34.8,55.5,30.6,55.5z"/>
</svg>
