<?xml version="1.0" encoding="utf-8"?>
<!-- Generator: Adobe Illustrator 25.0.1, SVG Export Plug-In . SVG Version: 6.00 Build 0)  -->
<svg version="1.1" id="图层_1" xmlns="http://www.w3.org/2000/svg" xmlns:xlink="http://www.w3.org/1999/xlink" x="0px" y="0px"
	 viewBox="0 0 64 64" style="enable-background:new 0 0 64 64;" xml:space="preserve">
<style type="text/css">
	.st0{fill:#FFFFFF;}
</style>
<path class="st0" d="M59,2.6H6.1c-1.6,0-2.9,1.3-2.9,2.9v41.1c0,1.6,1.3,2.9,2.9,2.9h0H59c1.6,0,2.9-1.3,2.9-2.9l0,0V5.5
	C62,3.9,60.6,2.6,59,2.6L59,2.6z M56.1,43.8h-47V8.5h47L56.1,43.8z M53.1,55.5H12c-1.6,0-2.9,1.3-2.9,2.9c0,1.6,1.3,2.9,2.9,2.9
	h41.1c1.6,0,2.9-1.3,2.9-2.9C56.1,56.8,54.8,55.5,53.1,55.5z"/>
<path class="st0" d="M35.2,30.5c0,4.4,2.4,7,5.5,7c3.2,0,5.5-2.6,5.5-7s-2.4-6.9-5.5-6.9C37.5,23.5,35.2,26.1,35.2,30.5z M40.7,26.4
	c1,0,1.9,0.9,1.9,4s-0.9,4.1-1.9,4.1s-1.9-1-1.9-4.1S39.7,26.4,40.7,26.4L40.7,26.4z M28.2,37.5L40,14.8h-3L25.2,37.5H28.2z
	 M24.4,28.7c3.2,0,5.6-2.6,5.6-7s-2.4-6.9-5.6-6.9s-5.5,2.5-5.5,6.9S21.2,28.7,24.4,28.7z M24.4,17.7c1,0,1.9,1,1.9,4
	s-0.9,4.1-1.9,4.1s-1.9-1.1-1.9-4.1S23.4,17.7,24.4,17.7z"/>
</svg>
