<?xml version="1.0" encoding="utf-8"?>
<!-- Generator: Adobe Illustrator 25.0.1, SVG Export Plug-In . SVG Version: 6.00 Build 0)  -->
<svg version="1.1" id="图层_1" xmlns="http://www.w3.org/2000/svg" xmlns:xlink="http://www.w3.org/1999/xlink" x="0px" y="0px"
	 viewBox="0 0 64 64" style="enable-background:new 0 0 64 64;" xml:space="preserve">
<style type="text/css">
	.st0{fill:#FFFFFF;}
</style>
<path class="st0" d="M58.7,20.9l-3.9-3.8c-1.1-1.1-2.8-1.1-3.9,0L23.9,43.9l7.7,7.7l27.1-26.8C59.7,23.7,59.7,21.9,58.7,20.9z
	 M21.3,55.6l9.1-2.9L22.7,45l-2.9,9C19.4,55.3,20.1,55.9,21.3,55.6z M44,13.1c0-1.2-1.1-2.2-2.5-2.2H17.1c-1.4,0-2.5,1-2.5,2.2
	s1.1,2.2,2.5,2.2h24.4C42.9,15.3,44,14.3,44,13.1z M33.5,22.6c0-1.2-1.1-2.2-2.5-2.2H17.1c-1.4,0-2.5,1-2.5,2.2s1.1,2.2,2.5,2.2H31
	C32.4,24.8,33.5,23.8,33.5,22.6z M26.9,32.2c0-1.2-1.1-2.2-2.5-2.2h-7.3c-1.4,0-2.5,1-2.5,2.2c0,1.2,1.1,2.2,2.5,2.2h7.3
	C25.8,34.3,26.9,33.4,26.9,32.2z"/>
<path class="st0" d="M51.4,38.6c-1.4,0-2.5,1.1-2.5,2.5v16H11V5.8h38v5.2c0,1.4,1.1,2.5,2.5,2.5c1.4,0,2.5-1.1,2.5-2.5V3.4
	c0-1.4-1.1-2.5-2.5-2.5H8.5C7.1,0.9,6,2,6,3.4v56.2C6,60.9,7.1,62,8.5,62h42.9c1.4,0,2.5-1.1,2.5-2.5V41.1
	C53.9,39.7,52.8,38.6,51.4,38.6z"/>
</svg>
