<?xml version="1.0" encoding="utf-8"?>
<!-- Generator: Adobe Illustrator 25.0.1, SVG Export Plug-In . SVG Version: 6.00 Build 0)  -->
<svg version="1.1" id="图层_1" xmlns="http://www.w3.org/2000/svg" xmlns:xlink="http://www.w3.org/1999/xlink" x="0px" y="0px"
	 viewBox="0 0 64 64" style="enable-background:new 0 0 64 64;" xml:space="preserve">
<style type="text/css">
	.st0{fill:#FFFFFF;}
</style>
<path class="st0" d="M42.2,20.4c-0.5-0.1-1-0.1-1.3-0.1c-0.9,0-1.5,0.2-1.5,0.2c-2.2,0.7-2.4,2.6-4.9,3.5c-1.2,0.5-2.4,0.5-3.1,0.5
	s-1.9,0-3.1-0.5c-2.5-1-2.6-2.8-4.9-3.5c0,0-0.5-0.2-1.5-0.2c-0.4,0-0.8,0-1.3,0.1c-3.2,0.5-10.8,5.9-20.2,14.2
	c-0.5,0.4-0.4,1.2,0.1,1.5c13.1,9.7,26.8,10.2,31,10.2c15.6,0,26.6-7,31-10.2c0.5-0.4,0.5-1.1,0.1-1.5C53,26.2,45.3,20.9,42.2,20.4z
	 M56.3,35.4c-7.9-2.9-8.7-1.5-14.6-0.6c-0.2,0-0.4,0.1-0.7,0.1c-1.9,0.3-5.2,0.9-9.6,0.9s-7.7-0.6-9.6-0.9c-0.3,0-0.5-0.1-0.7-0.1
	c-5.7-0.9-6.6-2.2-13.7,0.3c-0.7,0.1-1.3,0.2-2,0.3H3.7c-0.3,0-0.3-0.4-0.1-0.5c3.3-1.5,4.6-3.3,7.3-4c0.4-0.1,0.9-0.2,1.4-0.3
	c3.3-0.3,6.4-0.3,9.4,0.2c0.2,0,0.5,0.1,0.7,0.1c1.8,0.3,4.8,0.8,8.9,0.8s7.1-0.5,8.9-0.8c0.3,0,0.5-0.1,0.7-0.1
	c2.9-0.5,6.1-0.5,9.4-0.2c0.6,0.1,1.1,0.2,1.5,0.3c2.5,0.7,3.1,2.5,6.3,4c0.2,0.1,0.2,0.5-0.1,0.5C57.2,35.4,56.3,35.4,56.3,35.4z"
	/>
</svg>
