<svg id="图层_1" data-name="图层 1" xmlns="http://www.w3.org/2000/svg" viewBox="0 0 64 64"><defs><style>.cls-1{fill:#fff;}</style></defs><path class="cls-1" d="M60.94,58.79a3.1,3.1,0,0,1-3.09-3.09,17.59,17.59,0,0,0-35.18,0,3.09,3.09,0,0,1-6.18,0A23.76,23.76,0,0,1,64,55.7a3.05,3.05,0,0,1-3.06,3.09Z"/><path class="cls-1" d="M40.25,38.12a16.8,16.8,0,1,1,16.8-16.8A16.82,16.82,0,0,1,40.25,38.12Zm0-27.45A10.63,10.63,0,1,0,50.87,21.29,10.64,10.64,0,0,0,40.25,10.67ZM3.09,51.31A3.1,3.1,0,0,1,0,48.22a17,17,0,0,1,17-17,3.09,3.09,0,1,1,0,6.17A10.82,10.82,0,0,0,6.18,48.22,3.08,3.08,0,0,1,3.09,51.31Z"/><path class="cls-1" d="M17,31.21a6.15,6.15,0,1,1,0-12.3,7.19,7.19,0,0,1,2,.31,2.76,2.76,0,0,0,1.23.16,20.21,20.21,0,0,1,1.39-5.63c-.21-.12-.4-.27-.62-.37a11.77,11.77,0,0,0-4-.68,12.33,12.33,0,1,0,0,24.65,3.1,3.1,0,0,0,3.09-3.09,3.06,3.06,0,0,0-3.09-3Z"/></svg>