<?xml version="1.0" encoding="utf-8"?>
<!-- Generator: Adobe Illustrator 25.0.1, SVG Export Plug-In . SVG Version: 6.00 Build 0)  -->
<svg version="1.1" id="图层_1" xmlns="http://www.w3.org/2000/svg" xmlns:xlink="http://www.w3.org/1999/xlink" x="0px" y="0px"
	 viewBox="0 0 64 64" style="enable-background:new 0 0 64 64;" xml:space="preserve">
<style type="text/css">
	.st0{fill:#FFFFFF;}
</style>
<path class="st0" d="M30.8,2.4c-2.6,0-4.7,1.9-4.8,4.3l-0.7,20.1l-3.5-15.6c-0.5-2.4-3-3.9-5.5-3.5l-0.3,0c-2.6,0.4-4.3,2.7-3.9,5.1
	L15,32l-4.6-10.5c-1-2.2-3.7-3.4-6.1-2.5L4,19c-2.4,0.8-3.7,3.3-2.9,5.6l8.9,25.9c1.4,3.1,2,5.3,6.9,8.4s19.7,3.7,26.5-2
	c2.5-2.1,6.1-6,8-8.6L62,35.2c1.6-2,1.3-4.9-0.8-6.5c-2-1.6-5.1-1.4-6.9,0.4l-8.3,8.4l3.8-24.7c0.4-2.4-1.4-4.6-3.9-5.1l-0.3,0
	c-2.6-0.4-5,1.1-5.5,3.5l-3.5,15.6L35.9,6.7c-0.1-2.4-2.2-4.3-4.8-4.3H30.8L30.8,2.4z"/>
</svg>
