<?xml version="1.0" encoding="utf-8"?>
<!-- Generator: Adobe Illustrator 25.0.1, SVG Export Plug-In . SVG Version: 6.00 Build 0)  -->
<svg version="1.1" id="图层_1" xmlns="http://www.w3.org/2000/svg" xmlns:xlink="http://www.w3.org/1999/xlink" x="0px" y="0px"
	 viewBox="0 0 64 64" style="enable-background:new 0 0 64 64;" xml:space="preserve">
<style type="text/css">
	.st0{fill:#FFFFFF;}
</style>
<path class="st0" d="M15.4,46.6l-4.1,4.1c-0.8,0.8-0.8,2,0,2.8c0.8,0.8,2,0.8,2.8,0l4.1-4.1c0.8-0.8,0.8-2,0-2.8
	C17.4,45.8,16.2,45.8,15.4,46.6z M14.3,17.2c0.8,0.8,2,0.8,2.8,0s0.8-2,0-2.8l-4.2-4.2c-0.8-0.8-2-0.8-2.8,0c-0.8,0.8-0.8,2,0,2.8
	L14.3,17.2z M8.7,30.5H2.8c-1.1,0-2,0.9-2,2c0,1.1,0.9,2,2,2h5.9c1.1,0,2-0.9,2-2C10.7,31.4,9.8,30.5,8.7,30.5z M32.3,10.8
	c1.1,0,2-0.9,2-2V3c0-1.1-0.9-2-2-2c-1.1,0-2,0.9-2,2v5.9C30.4,10,31.3,10.8,32.3,10.8z M51.3,16.3l4.1-4.1c0.8-0.8,0.8-2,0-2.8
	c-0.8-0.8-2-0.8-2.8,0l-4.1,4.1c-0.8,0.8-0.8,2,0,2.8C49.3,17.1,50.5,17.1,51.3,16.3z M61.8,30.5h-5.9c-1.1,0-2,0.9-2,2
	c0,1.1,0.9,2,2,2h5.9c1.1,0,2-0.9,2-2C63.8,31.4,62.9,30.5,61.8,30.5z M50.4,47.8c-0.8-0.8-2-0.8-2.8,0s-0.8,2,0,2.8l4.2,4.2
	c0.8,0.8,2,0.8,2.8,0s0.8-2,0-2.8L50.4,47.8z M32.3,14.8c-9.8,0-17.7,7.9-17.7,17.7s7.9,17.7,17.7,17.7S50,42.3,50,32.5
	S42.1,14.8,32.3,14.8z M32.3,54.1c-1.1,0-2,0.9-2,2V62c0,1.1,0.9,2,2,2c1.1,0,2-0.9,2-2v-5.9C34.3,55,33.4,54.1,32.3,54.1z"/>
</svg>
