<?xml version="1.0" encoding="utf-8"?>
<!-- Generator: Adobe Illustrator 25.0.1, SVG Export Plug-In . SVG Version: 6.00 Build 0)  -->
<svg version="1.1" id="图层_1" xmlns="http://www.w3.org/2000/svg" xmlns:xlink="http://www.w3.org/1999/xlink" x="0px" y="0px"
	 viewBox="0 0 64 64" style="enable-background:new 0 0 64 64;" xml:space="preserve">
<style type="text/css">
	.st0{fill:#FFFFFF;}
</style>
<path class="st0" d="M53.5,12.3c2.9,2.9,5,6.1,6.5,9.7c1.4,3.6,2.1,7.3,2.1,11.1s-0.7,7.5-2.1,11.1c-1.4,3.6-3.6,6.8-6.5,9.7
	s-6.1,5-9.7,6.5c-3.6,1.4-7.3,2.2-11.1,2.2s-7.5-0.7-11.1-2.2s-6.9-3.6-9.8-6.5s-5-6.1-6.5-9.7c-1.4-3.6-2.2-7.3-2.2-11.1
	c0-3.8,0.7-7.5,2.2-11.1c1.4-3.6,3.6-6.8,6.5-9.7s6.1-5,9.8-6.5s7.3-2.1,11.1-2.1s7.5,0.7,11.1,2.1S50.6,9.5,53.5,12.3z M46.5,46.7
	c0.9-0.9,1.4-2,1.2-3.2c-0.1-1.2-0.6-2.3-1.6-3.2l-7.1-7.1l7.1-7.1c0.9-0.9,1.5-2,1.6-3.2c0.1-1.2-0.3-2.3-1.2-3.2
	c-0.9-0.9-2.1-1.4-3.4-1.4s-2.5,0.5-3.4,1.4l-7.1,7l-6.9-6.9c-0.9-0.9-2-1.4-3.2-1.5c-1.2-0.1-2.3,0.3-3.2,1.2
	c-0.9,0.9-1.4,2.1-1.4,3.4c0,1.4,0.5,2.5,1.4,3.4l6.9,6.9L19.2,40c-0.9,0.9-1.4,2.1-1.4,3.4s0.5,2.5,1.4,3.4c0.9,0.9,2,1.4,3.2,1.2
	c1.2-0.1,2.3-0.6,3.2-1.6l6.9-6.9l7.1,7.1c0.9,0.9,2.1,1.4,3.4,1.4C44.4,48.1,45.5,47.6,46.5,46.7L46.5,46.7z"/>
</svg>
