<?xml version="1.0" encoding="utf-8"?>
<!-- Generator: Adobe Illustrator 25.0.1, SVG Export Plug-In . SVG Version: 6.00 Build 0)  -->
<svg version="1.1" id="图层_1" xmlns="http://www.w3.org/2000/svg" xmlns:xlink="http://www.w3.org/1999/xlink" x="0px" y="0px"
	 viewBox="0 0 64 64" style="enable-background:new 0 0 64 64;" xml:space="preserve">
<style type="text/css">
	.st0{fill:#FFFFFF;}
</style>
<path class="st0" d="M31.7,11c4.3,0,8.2,0.9,11.9,2.5c4.2,1.8,8,4.4,11.5,7.4c2.9,2.5,5.6,5.4,8,8.4c0.8,1,0.8,1.9,0.1,2.8
	c-1.8,2.6-3.8,5-6.1,7.3c-3,3.1-6.4,5.8-10.2,7.9c-3.2,1.8-6.7,3-10.4,3.5c-4.6,0.6-9,0.1-13.3-1.5c-4.6-1.7-8.6-4.3-12.2-7.4
	c-3.5-3-6.6-6.4-9.5-10c-0.8-1-0.8-1.6,0-2.6c3.3-4.6,7.2-8.6,11.8-11.9c3.1-2.2,6.3-3.9,9.9-5.1C26.1,11.5,29,11,31.7,11L31.7,11z
	 M45.8,18.9c3.9,7,1.7,14.8-3.4,19.1c-5.3,4.4-12.7,4.9-18.4,1.2c-3.4-2.3-5.6-5.4-6.5-9.4c-0.9-4-0.2-7.7,1.8-11.2
	c-5.5,3-9.9,7.2-13.7,12.1c1.7,2.2,3.6,4.2,5.5,6.1c1.8,1.7,3.6,3.3,5.6,4.8c3.6,2.6,7.6,4.5,12,5.3c2.8,0.5,5.7,0.5,8.5-0.1
	c4.2-0.8,7.9-2.7,11.3-5.1c4.1-2.9,7.5-6.5,10.5-10.5c0.1-0.2,0.1-0.3,0-0.5c-1.1-1.2-2.2-2.5-3.3-3.7c-2.6-2.7-5.3-5.1-8.5-7.1
	C46.7,19.4,46.3,19.1,45.8,18.9L45.8,18.9z M21.7,27c0.1,0.2,0.1,0.6,0.3,0.9c0.3,0.6,1.1,0.8,1.8,0.6c0.7-0.2,1.1-0.7,1.2-1.4
	c0.1-0.9,0.2-1.7,0.5-2.5c1-3.2,3.2-4.9,6.5-5.3c1-0.1,1.6-0.8,1.6-1.8c0-0.9-0.6-1.4-1.5-1.4c-0.3,0-0.7,0.1-1,0.1
	c-2,0.3-3.8,1-5.4,2.3C23.1,20.7,22,23.6,21.7,27L21.7,27z"/>
</svg>
